<svg xmlns="http://www.w3.org/2000/svg" viewBox="0 0 2811.74 720.43"><defs><style>.cls-1{fill:none;}.cls-2{fill:#d557ff;}.cls-3{fill:#ffbb10;}.cls-4{fill:#ff2e6a;}.cls-5{fill:#fff;}.cls-6{fill:#27ffdb;}</style></defs><title>OpenBrush Logo Color</title><g id="Layer_2" data-name="Layer 2"><g id="Warstwa_1" data-name="Warstwa 1"><path d="M2811.7,475.44c-.27-29.59-2.3-65.17-5.3-92.86-3.89-36-11.86-62.88-25.07-84.47-17.3-28.29-43.68-47.39-78.4-56.78a129.69,129.69,0,0,0-48-3.94c-4.4-31.94-9.16-58.26-12.55-75.37-4.78-24.24-9.89-45.84-14.75-62.47-7.27-24.84-13.38-37.25-22.54-45.78-15.36-14.29-34.18-21.84-54.44-21.84-31.19,0-60.35,18.43-70.91,44.82-6.92,17.3-3.05,32.67,2.8,55.94,8,32,22.44,89.26,29.48,203.91a130.4,130.4,0,0,0-36-21.73c10.15-10.39,17.14-24.59,19.7-40.84,4.24-26.92-4-53.07-21.48-68.24-13.46-11.68-33.38-17.12-62.69-17.12-23.48,0-58.55,4.1-86.56,15.61a123,123,0,0,0-48.15,35.61c-.9-.94-1.84-1.87-2.84-2.76-11.9-10.63-29-15.8-52.24-15.8-19.8,0-67.26,3.84-80.37,39.44-3.42,9.27-4.77,21.51-6.59,45.55-.11-3.07-.44-6.65-1-11-2.74-20.63-15.26-36-36.27-47.9-15.29-8.64-33.31-13.6-49.44-13.6-12.5,0-24,2.88-33.69,8.39-15.42-18.28-41.25-23.86-51.27-26-22.89-4.93-46.38-5.94-55.42-6.15l-1.45,0c-15.39,0-30.76,5.36-46.53,16.28a52,52,0,0,0-25.1-6.46c-1.66,0-3.36.08-5,.24-40.19,3.83-65.6,15.92-77.51,36.9a162.75,162.75,0,0,0-34.6-29.12c16.44-34.78,17.09-76.87-.82-110.53A150.21,150.21,0,0,0,1660.63,59c-27.16-16.16-59.05-24.36-94.8-24.36-3.35,0-6.79.08-10.2.23C1510.69,36.75,1470.86,55,1445.36,70c-15.67,9.2-53.29,33.45-64,59.76-9.74,23.85-1,60.63,12.73,81,7.18,10.67,16.22,18.51,26.48,23.14.51,26.39,1,52.76.58,73.84-.21-.49-.41-1-.62-1.45-15.85-35.67-46.16-59.13-90.09-69.73a162.68,162.68,0,0,0-38.1-4.61,152.67,152.67,0,0,0-37.87,4.74,59.6,59.6,0,0,0-6.68-6.61c-15.22-12.87-37.07-14.8-48.74-14.8-29,0-52.48,11.45-64.27,31.41a53.14,53.14,0,0,0-5.26,12.11c-23.07-28.57-64.49-46.21-111.41-46.21a178.31,178.31,0,0,0-90.84,24.6c-22.56,13.36-41.39,34.18-54.69,60.05a114.37,114.37,0,0,0-8.87-12.57c-18-22.05-44.29-37.42-80.5-47a157.65,157.65,0,0,0-40.19-5c-23,0-44.76,4.36-62.54,9.52-11.86-4.78-25.28-5.86-34.92-5.86-8.94,0-21.79.92-34.41,5-.55-2.5-1.13-5-1.75-7.53C577,102.91,480.08,33.16,422.54,33.16c-14.9,0-25.78,4.38-33.43,9.53a51.15,51.15,0,0,0-8.37-12.12C363.35,11.71,326.81,0,285.37,0c-1.84,0-3.71,0-5.57.07-40.45,1-72.5,14.36-90.23,37.64a70,70,0,0,0-5.47,8.39c-.47,0-.95-.05-1.43-.05-25,0-50.34,18.13-63.13,44.22a44.82,44.82,0,0,0-15-2.59c-15.47,0-28.09,7.56-36,13.91-7.39,6-17.1,16.12-21.4,30.67a50.18,50.18,0,0,0-2.08,15.91c-.45.44-.9.89-1.35,1.36C21,173.17-1.89,231.46.12,280.55a288.25,288.25,0,0,0,11.72,68.53c-8,22.68,1.9,49.2,5.75,59.55,8,21.4,20.64,45.21,34.78,65.33,31.09,44.22,72.84,77.69,117.58,95,5.22,7.06,13,14.29,24.48,20.51,13.88,7.49,31.45,12.67,53.69,15.83a345.57,345.57,0,0,0,48.25,3.14,532.7,532.7,0,0,0,62.23-3.91c5,.59,10,1,15.12,1.25,2.31.1,4.65.15,7,.15h0a167.58,167.58,0,0,0,94-29.3c22.1-15.19,38.18-34.33,46.91-55.39L559,472a299.88,299.88,0,0,0,20.18-30.33c.58,10.25,1,20.43,1.3,30.34,1.12,41.91-5.06,89.21-9.58,123.75-5.33,40.81-7.77,59.43-1.4,75.35,5.9,14.76,19.32,27.28,39.89,37.2,9.4,4.55,28,12.17,47.24,12.17,14.31,0,25.48-4.29,33.76-10.57a48.25,48.25,0,0,0,16.43-22.6c1.78-5.18,5.94-17.3,11.05-102.25.75-12.39,1.42-24.84,2-37.06,5.71-.71,11.72-1.5,18.07-2.39A182.47,182.47,0,0,0,865.83,462c26,63.58,82.37,104.77,146.72,104.77,44.51,0,85.5-15.15,112.57-34.65,1.87,18.52,7,34.1,21.88,44,3.94,2.63,15.92,10.61,44.2,10.62,21.71,0,40-4.27,53.7-12.13s22.77-19.28,26-33.6c2.75-12.06,3.78-44.88,4.71-151.17a86.72,86.72,0,0,1,9.81-14.91c.83,5.65,1.92,16.67,2.32,37,.43,21.89-.06,47.22-.46,67.57-.64,33-.72,44.39.74,52.77,4.06,23.35,24.85,48.3,71,48.3a123.55,123.55,0,0,0,33.55-4.58,49.79,49.79,0,0,0,23.11-14.52c10.62,21.26,31,33.28,58.22,33.28,75.89,0,209.46-19.86,274.47-90.45l0,.7c-.37,12.24-.1,21.53.85,29.22,2.51,20.48,11.4,34.57,26.4,41.86,16.31,7.93,37.11,8.79,45.3,8.79h0c15,0,28.45-2.46,39.91-7.31,20.05-8.48,33.33-24,37.39-43.78,4.59-22.25,5.49-106.22,5.62-122.82.1-11.95.12-22.7.08-32.4,7.19-6.66,15-13.87,21.35-19.69l2.29.74c8.87,2.87,18.92,6.13,30.18,6.13,1.74,0,3.47-.09,5.18-.25-2,11.83-3.9,24-5.43,35.86a213.45,213.45,0,0,0,2.59,68.13c5.59,27.33,16.64,51,32,68.38,20.42,23.21,47.83,35.48,79.28,35.48a230.78,230.78,0,0,0,72.47-11.22A46,46,0,0,0,2167.09,577c7.33,2,18.12,3.17,28.86,3.17,34.58,0,53.53-11.72,63.91-24.09,11.62,8.91,26.39,12.8,39.16,15.19,15.75,3,35.19,4.52,56.2,4.52h0c20.22,0,59.51-1.55,95.42-12,26.85-7.78,46.65-19.17,61.3-32.43a81.71,81.71,0,0,0,9.19,27.25c15,26.74,50.07,26.74,61.6,26.74a172.61,172.61,0,0,0,18.28-1,142.13,142.13,0,0,0,16.94-2.81c22.38-5.21,36.85-16.19,43-32.63,1.65-4.41,3.45-9.21,4.61-33.15.12,1.27.25,2.53.38,3.75,1.84,17.1,4.36,40.52,24.24,53.22,10.9,7,24.48,10.49,40.38,10.49,20.81,0,49-6.5,65.6-24.72C2807.11,546.58,2812.21,531.09,2811.7,475.44ZM423.83,347.74l-3.87,3.9c-3.16-.3-6.34-.47-9.54-.47-20.05,0-38.81,5.87-57.26,14.65A143.1,143.1,0,0,1,335.79,367c-21.22,0-34.05-5.68-47.88-14.85-5.65-3.75-11.66-8.94-17.47-14-8.21-7.08-17-14.7-27.23-19.95-1.4-15-8.27-27.77-12-33.77-10.48-16.74-28.12-27.22-46.18-27.53a202.1,202.1,0,0,1,1.24-22.38,149.67,149.67,0,0,0,.95-19.12A93.87,93.87,0,0,0,201,200.64c6.46-8.53,17.36-25.72,17.76-45a49,49,0,0,0-3.34-19,77.29,77.29,0,0,0,5.52-8.07c1.43.11,2.88.17,4.35.17h0c12.5,0,24-4.07,37.39-8.79a274,274,0,0,1,29.83-9.19,149.54,149.54,0,0,1,34.73-4.11c3.81,0,7.13.13,10.34.26,2.78.12,5.42.22,8.05.22a58.86,58.86,0,0,0,16.69-2.25c4.46,21,20.51,35,34.89,47.66,21.45,18.82,48.14,42.24,57.05,94.07C461.14,286.4,450.89,320.44,423.83,347.74Zm315.28,39.75c-3.4,4.42-9.56,8.34-17.61,11.52-.16-5.35-.36-10.87-.58-16.49a111.43,111.43,0,0,1,23.24-4.8l.89-.07A45.82,45.82,0,0,1,739.11,387.49Zm830.44-216.3c5.68,0,9.2,1.89,10.08,3.08.46.63.71,3.18-.52,7.43-1.13,1.89-5.18,5.81-13.55,10.68-.45-7.46-.91-14.37-1.38-20.66A27.68,27.68,0,0,1,1569.55,171.19Zm53.56,239.89c-2.07,2.19-14.78,13.77-62.1,27.4l-.72.21c2.16-24,4.5-54.91,6.36-91.85a205.15,205.15,0,0,1,30.8-2.61c17,0,30.53,3.11,36.21,8.33a23.42,23.42,0,0,1,8,17.43C1642.14,382.75,1635,398.5,1623.11,411.08Zm679.28,10.73c-7.74,0-16.42.6-24.86,4.19.46-9.27,1.07-18.25,1.89-26.53a99.57,99.57,0,0,0,33.37,21.8c.8.32,1.6.64,2.41.94C2310.51,422,2306.23,421.81,2302.39,421.81Z"/><path class="cls-1" d="M740.5,337.89c-25.19,2.32-46.85,11.31-60.91,18.68,1.76,29.49,2.62,62.71,2.82,90.57,25.14-1.51,67.62-8.2,88.43-35.29C801.49,371.93,785,333.79,740.5,337.89Z"/><path class="cls-1" d="M1660.72,323.09c-34.1-31.3-107.24-15.71-132.81-9-.2,7.89-.48,15.8-.86,23.67-4.56,95.42-12.55,152.55-12.55,152.55s105.65-17.93,137.66-51.75S1694.75,354.35,1660.72,323.09Z"/><path class="cls-1" d="M1617.23,193.83c13.54-44.2-24.7-70.49-64.39-60.55-9.8,2.45-20.33,7.52-30.88,13.8,2.51,25.89,5,62.39,6,102.77C1559.78,241,1608.28,223,1617.23,193.83Z"/><path class="cls-2" d="M82.54,366.6c9.41-.07.73-24.9-4.62-40.47s-10.62-41.88-2.28-43.95,13.83,21.37,20.17,17.58-14.26-46.72-3-51.12,17.31,11,27.37,31.61,27.38,49.95,33,47.13-10.32-26.17-1.77-29.31l.07,0a163.46,163.46,0,0,1-5.79-29.12c-3.25-32.4,7-59-2.58-59.39S129.93,235.6,127,220.12s.93-28.44,9.68-51.93.47-27.63-10.79-18.05-22,39.39-28.08,52.63-15.7,15.9-15.4,6S94,173.59,80.82,172.51,38.15,231.56,40.09,278.9c1.46,35.27,11.72,65.63,16.86,78.82C65.2,357.36,75,366.65,82.54,366.6ZM69,242.19c9.1-1.4,13.42,26.32,1.82,27.34S58,243.86,69,242.19Z"/><path class="cls-2" d="M89.3,153.51c8.26,5.36,23.89-19.71,17.84-25S75,144.24,89.3,153.51Z"/><path class="cls-2" d="M151.34,190.1c11.11-1.19,27.2-23.35,27.45-35.31s-15.79-7.33-26,11.63S145.44,190.73,151.34,190.1Z"/><path class="cls-3" d="M202.53,529.87c8.28-6.88,17.36-16.54-12.9-25.45s-64.73-34-54.85-47.91,51.91,9,48.86-7.47-56.49-56.66-55.9-82,19.56-19.43,39.16,1.61,50.46,38.95,54.81,26c4.19-12.47-21.6-27.51-12.32-39-6.12-3.83-16.09-11.51-27.87-26.12-19.63-24.34-21.59-34.6-30.08-31.54l-.07,0c-8.55,3.14,7.35,26.48,1.77,29.31s-22.89-26.5-33-47.13-16.12-36-27.37-31.61,9.33,47.32,3,51.12S84,280.12,75.64,282.18s-3.06,28.38,2.28,43.95,14,40.4,4.62,40.47c-7.53,0-17.34-9.24-25.59-8.88A9.11,9.11,0,0,0,51.18,360c-9,7.85,8.13,54.23,33.92,90.91,27.36,38.93,67.74,72.64,114.05,85.7A9.4,9.4,0,0,1,202.53,529.87Zm-83.4-86.59c-6.09,6.77-21.07.25-27.73-10.89s-7.27-20,1.17-21.46c7.61-1.35,15,2.66,24.08,14.87C121.1,431.78,123.41,438.52,119.13,443.28Z"/><path class="cls-3" d="M70.78,269.53c11.6-1,7.28-28.74-1.82-27.34C58,243.86,59.18,270.54,70.78,269.53Z"/><path class="cls-4" d="M252.57,499.16a169,169,0,0,1-23.46-52.06s40.25,15.31,85.48-12.54c18.33-11.29,34.86-22,50.42-30-49.48,7.73-76.74-4.17-99.21-19.08-24.35-16.15-42.9-42.58-55.26-31a11,11,0,0,0-1.15,1.24c-9.28,11.44,16.51,26.48,12.32,39-4.35,12.92-35.21-5-54.81-26s-38.57-27-39.16-1.61,52.85,65.55,55.9,82-39-6.48-48.86,7.47,24.59,39,54.85,47.91,21.18,18.57,12.9,25.45a9.4,9.4,0,0,0-3.38,6.78c-.48,9.19,11.51,23,54.6,29.08,38.59,5.48,81.74,1.53,105-1.49C312.76,557.5,275.25,532.16,252.57,499.16Z"/><path class="cls-4" d="M92.57,410.93c-8.44,1.5-7.83,10.33-1.17,21.46s21.64,17.66,27.73,10.89c4.28-4.76,2-11.5-2.48-17.48C107.58,413.59,100.18,409.58,92.57,410.93Z"/><path class="cls-4" d="M180.47,297.88c-4.8,2.86-2.77,15.29,1.65,23.86s12.54,11.16,17.63,8.86c7.63-3.46,1.88-18-2.46-24.91S185.28,295,180.47,297.88Z"/><path class="cls-5" d="M409.67,77.32c-38.23,38.56,63.25,41.56,84.05,162.48,11.64,67.69-17.83,112.25-41.48,136.1,13.77,3.63,35.1,13.7,52.81,35.28,13.57,16.55,19.5,28.4,22,36.63,27.91-36.87,67-109.06,43.47-204.36C537.07,108,429.34,57.48,409.67,77.32Z"/><path class="cls-6" d="M283.58,71.74c48.59-11.18,69.49.9,70.26-8.65.73-9-28.29-24.13-73.06-23-45.31,1.11-69.13,21.8-64.06,42.1C220.75,98.31,245.2,80.57,283.58,71.74Z"/><path class="cls-6" d="M174.58,120.43c15.69-10,20.07-29.28,12.14-33.47s-26.57,6.78-33.28,25.7C149.43,124,158.88,130.45,174.58,120.43Z"/><path class="cls-5" d="M430,394.45c-21.33-7.36-42.09-1.62-64.94,10.09-15.56,8-32.09,18.73-50.42,30-45.23,27.85-85.48,12.54-85.48,12.54a169,169,0,0,0,23.46,52.06c22.68,33,60.19,58.34,106.2,65.08,5.47.8,11.05,1.35,16.75,1.61,53.64,2.41,107.43-33.16,113.09-74.21S472.85,409.23,430,394.45Z"/><path class="cls-5" d="M773,276.35c-37.89-10-80,2.73-101.83,11.28-1.33-4.26-2.79-7-4.39-7.78-11.41-5.69-45.63-5-54.18,6.13-8.4,10.9,5.7,104.94,7.84,184.91S600.89,641.94,606.59,656.2s56.69,34.56,62.35,18.07c4.29-12.49,10-94.84,12.36-162.64,11.28-.74,27.57-2.4,51-5.68,71.29-10,119.76-73.43,119.55-130.44S827.15,290.66,773,276.35Zm-2.14,135.5c-20.81,27.09-63.29,33.78-88.43,35.29-.2-27.86-1.06-61.08-2.82-90.57,14.06-7.37,35.72-16.36,60.91-18.68C785,333.79,801.49,371.93,770.84,411.85Z"/><path class="cls-5" d="M1109.34,426.29c-20.07-3.77-42.25,40.31-89.35,40.31s-62-46.28-63.27-73.55,6.16-56.12,23-72,74.58-25.19,76,18.54c.79,24.2-60.92,15.19-73.93,27.52-7.81,7.41-7.13,24.47,0,30.65,13.84,12,75.57,10.7,104-10.57,31.46-23.56,31.16-67.68,18.79-93.53-18.55-38.76-96.36-57.92-156.95-22-45.55,27-66.88,96.78-51.24,155.92S958,526.8,1012.55,526.8s96.09-27.27,105.18-42.85S1129.42,430.06,1109.34,426.29Z"/><path class="cls-5" d="M1321,275.43c-41.6-10-72.51,3.85-87,12.82-2-12.15-5.71-22.27-12.06-27.64-8.18-6.92-43.48-9.27-52.75,6.42-6.84,11.58-5.7,74.85-3.56,117.62s-7.13,151.13,3.56,158.26,59.17,5,62.73-10.69c2.65-11.63,3.33-96.54,3.8-151.59,7.56-17.25,18.94-33.29,28.28-40.18,13.55-10,42.77-9.26,56.32,12.12s4.28,156.48,7.13,172.87,34.22,17.82,54.18,12.12,13.54-82.39,12.35-149.34C1393.24,346.29,1392.32,292.64,1321,275.43Z"/><path class="cls-5" d="M1692.79,259.6a137.24,137.24,0,0,0-40.52-15.29,91.35,91.35,0,0,0,11.3-8.93c24.23-22.6,35.64-65.79,17.82-99.3s-57.74-64.15-124-61.3-132,52.94-139,70.05c-4.71,11.53,4.6,57.51,27.64,53.71,3.17-.53,7.9-3.19,13.75-7.18.72,47,2.58,104.21.64,137.8-3.57,61.66-14.26,175.72-12.83,197.82s11.16,27.8,26.37,27.8c88.4,0,221.07-27.36,260.2-98.38C1773.7,384.6,1757.84,297.68,1692.79,259.6Zm-140-126.32c39.69-9.94,77.93,16.35,64.39,60.55-9,29.21-57.45,47.19-89.31,56-.94-40.38-3.45-76.88-6-102.77C1532.51,140.8,1543,135.73,1552.84,133.28Zm99.32,305.3c-32,33.82-137.66,51.75-137.66,51.75s8-57.13,12.55-152.55c.38-7.87.66-15.78.86-23.67,25.57-6.73,98.71-22.32,132.81,9S1684.17,404.76,1652.16,438.58Z"/><path class="cls-5" d="M1906.83,250c-19-.44-41.25,22.56-52.26,35.51-4.79-13.88-10.18-26.68-21.14-25.64-15,1.43-41.35,5.71-47,17.82-5.22,11.1,10.69,47.77,11.4,92.68s-18.2,163.18-4.65,169.77,60.95,9.84,65.94-14.4c3.33-16.16,5.58-103.08,4.68-164.44,12.53-11.62,35.85-33.22,44.53-41,12.12-10.85,38.49,7.3,51.66,5.31S1990.19,288,1986,272,1933.23,250.6,1906.83,250Z"/><path class="cls-5" d="M2247.41,267C2236,256.78,2184,261.05,2179,274.6s-5.7,96.24-15,127.6-43.48,69.15-79.84,57.74,12.12-142.57,10-159.68-45.62-35.64-62.73-21.38c-14,11.68-27.8,77.7-34.22,127.6s10,126.89,74.14,126.89,98.38-28.51,98.38-28.51-2.48,30.7,7.84,33.5c8.55,2.32,49.9,5.7,54.89-14.26s2.14-93.38,8.55-140.43S2258.81,277.15,2247.41,267Z"/><path class="cls-5" d="M2447,347.52c-45.22-10.53-95.33-3.66-98.85-23.38s.58-34.35,31.93-36.47,42.48,11.64,60.76,3.87c18.74-8,20.84-43.73,7.23-55.54s-73.46-8.84-107.83,5.28S2279.11,294.2,2292.62,344s64.06,46.79,102.65,50.44,75.45,18.93,48.49,52.22-141.64,9.52-151.22,16.46-19.59,42.75-10.91,58.31,100.18,20.63,157.9,3.92,70.36-52,74.56-90.25S2492.23,358.06,2447,347.52Z"/><path class="cls-5" d="M2766.64,386.88c-5.7-52.75-21.39-92.67-74.14-106.93-30.75-8.31-55.93.82-71.58,9.88-10.29-102.29-32.64-197.09-43.05-206.78-23.46-21.83-54.54-7.48-60.95,8.56s27.62,66.32,36.89,277.33c4.07,92.88-11.63,145.4,2.23,170.13,5.79,10.33,63.21,7.25,67.49-4.15,3.7-9.87,4.1-113.06,2.21-173.4,19.87-11.79,44.88-22.67,57.49-12.42,22.81,18.53,15.69,181.78,28.52,190s44.71,3.68,54.89-7.48C2774.44,523,2772.34,439.63,2766.64,386.88Z"/></g></g></svg>